<svg width="46" height="30" viewBox="0 0 46 30" fill="none" xmlns="http://www.w3.org/2000/svg">
<path fill-rule="evenodd" clip-rule="evenodd" d="M13.688 19.5249H15.5162L13.688 16.4719L12.144 13.9009L5.58312 17.8492L6.58516 19.5249H13.688ZM30.6965 19.5249H39.6275L34.0682 10.2442L27.9205 0L25.388 1.5265L21.3661 3.94831L25.388 10.658L30.6965 19.5249ZM27.5754 22.5847C26.9454 22.1778 26.2072 21.9402 25.4082 21.9402H25.388C23.1809 21.9537 21.3866 23.7583 21.3866 25.97C21.3866 28.1819 23.1809 29.9863 25.388 30H25.4082C26.2072 30 26.9454 29.7626 27.5754 29.3556V29.7761H29.4236V19.5251H27.5754V22.5847ZM27.5754 26.3908C27.3791 27.4085 26.4783 28.1884 25.4082 28.1884H25.388C24.176 28.1749 23.1944 27.1844 23.1944 25.97C23.1944 24.7558 24.176 23.7653 25.388 23.7583H25.4082C26.4783 23.7583 27.3789 24.5319 27.5754 25.5494V26.3908ZM36.2556 22.5847C35.6112 22.1633 34.8583 21.9394 34.0889 21.9402H34.0682C31.8611 21.9537 30.067 23.7583 30.067 25.97C30.067 28.1819 31.8611 29.9863 34.0682 30H34.0889C34.8879 30 35.6326 29.7626 36.2556 29.3556V29.7761H38.1043V22.1436H36.2556V22.5847ZM36.2556 26.3908C36.0593 27.4085 35.1585 28.1884 34.0889 28.1884H34.0682C32.8566 28.1749 31.8748 27.1844 31.8748 25.97C31.8748 24.7558 32.8566 23.7653 34.0682 23.7583H34.0889C35.1585 23.7583 36.059 24.5319 36.2556 25.5494V26.3908ZM44.6786 25.468C44.611 25.4338 44.516 25.4 44.4076 25.3593C43.9946 25.2169 43.3242 25.0404 42.3898 24.837C41.5705 24.6536 41.1575 24.4165 41.1575 24.1179C41.1575 23.9075 41.2319 23.7378 41.374 23.6159C41.5638 23.453 41.902 23.3715 42.3898 23.3715C42.884 23.3715 43.2429 23.4802 43.4529 23.6904C43.5816 23.8193 43.6761 24.0497 43.7372 24.3755H45.7009C45.7009 23.4122 45.3081 22.7203 44.5362 22.2998C44.4956 22.2732 44.4525 22.2505 44.4076 22.2321C43.8724 21.9809 43.1616 21.852 42.2748 21.852C41.1979 21.852 40.3857 22.1371 39.8442 22.7136C39.4111 23.1749 39.2011 23.7378 39.2011 24.4028C39.2011 25.2308 39.6071 25.8276 40.4333 26.2144C40.7448 26.3635 41.5029 26.5739 42.7085 26.8318C43.5142 27.0082 43.92 27.2593 43.92 27.5782C43.92 27.7683 43.8392 27.931 43.6631 28.0802C43.4394 28.2701 43.1008 28.3653 42.6474 28.3653C42.0446 28.3653 41.6181 28.2636 41.3678 28.0669C41.1169 27.877 40.9882 27.5989 40.9882 27.2461H38.93C38.93 28.1824 39.3228 28.881 40.1148 29.3421C40.7448 29.7016 41.5708 29.885 42.5935 29.885C43.2771 29.885 43.8863 29.7696 44.4078 29.546C44.5163 29.4985 44.6113 29.4508 44.7128 29.3965C45.5186 28.949 45.9248 28.2366 45.9248 27.2598C45.9246 26.4585 45.5111 25.8613 44.6786 25.468ZM7.11336 22.5847C6.46614 22.1642 5.71131 21.9404 4.93995 21.9402H4.9195C2.71915 21.9537 0.924805 23.7583 0.924805 25.97C0.924805 28.1819 2.71915 29.9863 4.9195 30H4.93995C5.73898 30 6.48366 29.7626 7.11336 29.3556V29.7761H8.96182V22.1436H7.11336V22.5847ZM7.11336 26.3908C6.91709 27.4085 6.01631 28.1884 4.93995 28.1884H4.9195C3.71445 28.1749 2.73262 27.1844 2.73262 25.97C2.73262 24.7558 3.71445 23.7653 4.9195 23.7583H4.93995C6.01655 23.7583 6.91709 24.5319 7.11336 25.5494V26.3908ZM18.651 21.3365H20.6621V19.5656H18.651V21.3365ZM18.651 29.7759H20.6621V21.9402H18.651V29.7759ZM15.8818 22.5847C15.2345 22.1641 14.4796 21.9403 13.7082 21.9402H13.688C11.4806 21.9537 9.6863 23.7583 9.6863 25.97C9.6863 28.1819 11.4804 29.9863 13.688 30H13.7082C14.4796 30 15.2346 29.7761 15.8818 29.3556V29.7761H17.7303V19.5251H15.8818V22.5847ZM15.8818 26.3908C15.6856 27.4085 14.7848 28.1884 13.7082 28.1884H13.688C12.4759 28.1749 11.4941 27.1844 11.4941 25.97C11.4941 24.7558 12.4759 23.7653 13.688 23.7583H13.7082C14.7848 23.7583 15.6853 24.5319 15.8818 25.5494V26.3908ZM27.5681 19.5249L25.388 15.8752L20.0324 6.94708L13.688 10.7735L13.4713 10.9021L13.688 11.2617L18.6441 19.5249H27.5681Z" fill="white"/>
</svg>
