<svg width="60" height="26" viewBox="0 0 60 26" fill="none" xmlns="http://www.w3.org/2000/svg">
<path fill-rule="evenodd" clip-rule="evenodd" d="M54.7052 0.205272H60V1.28353H56.3876V2.66953H59.381L58.6146 3.74746H56.3876V5.44153H60V6.51946H54.7052V0.205272ZM31.9422 0.205272H37.2367V1.28353H33.6246V2.66953H36.6187L35.8513 3.74746H33.6246V5.44153H37.2367V6.51946H31.9422V0.205272ZM16.058 0.205272H17.7651L20.8083 4.31237V0.205272H22.4907V6.51946H20.7589L17.7401 2.43864V6.51946H16.058V0.205272ZM10.6641 5.46715C11.2083 5.46715 12.1733 5.41592 12.52 5.10784V1.61722C12.1733 1.30915 11.2086 1.25791 10.6641 1.25791C10.1198 1.25791 9.15484 1.30915 8.80848 1.61722V5.10818C9.15484 5.41592 10.1198 5.46715 10.6641 5.46715V6.64788C9.82286 6.64788 7.12606 6.80158 7.12606 5.36468V1.36038C7.12606 -0.076852 9.82286 0.0771844 10.6641 0.0771844C11.5053 0.0771844 14.2024 -0.076852 14.2024 1.36038V5.36468C14.2024 6.80192 11.5053 6.64788 10.6641 6.64788V5.46715ZM0 1.54037C0 0.231222 1.93 0.0515671 3.26606 0.0515671C4.60211 0.0515671 5.12165 0.179987 6.23514 0.616481L5.27014 1.64284C4.7259 1.36038 2.9197 0.975458 1.68242 1.59161V5.15941C2.9197 5.77556 4.7259 5.3903 5.27014 5.10818L6.23514 6.13487C5.12165 6.57136 4.60211 6.69945 3.26606 6.69945C1.93 6.69945 0 6.51946 0 5.21065V1.54037ZM43.7938 4.10677L45.4269 6.51946H43.6704L42.0367 4.05553H40.775V2.97761H42.2102C42.7301 2.97761 43.299 2.97761 43.7441 2.66953V1.59127C43.2987 1.2832 42.7301 1.2832 42.2102 1.2832H40.775V6.51946H39.0926V0.205272H43.4221C44.1155 0.205272 45.4265 0.25684 45.4265 1.61689V2.64358C45.4265 3.78705 44.5 4.00563 43.7929 4.04622L43.7938 4.10677ZM48.6682 1.38633C50.4247 0.94984 51.8352 1.56599 52.1322 1.72002L53.0725 0.744568C52.4785 0.410876 51.1672 0 49.7814 0C48.3956 0 46.9114 0.102803 46.9114 1.56599V2.18214C46.9114 3.2085 47.1587 3.46533 47.8767 3.64499C48.5938 3.82464 50.3259 4.13238 51.365 4.20957V5.36468C49.6079 5.80118 48.1981 5.18503 47.7032 4.95414L46.7629 5.9296C47.5547 6.34014 48.8658 6.75102 50.2519 6.75102C51.6373 6.75102 53.1218 6.64822 53.1218 5.18536V4.23585C53.1218 3.51724 52.5776 3.28635 52.2062 3.15759C51.8355 3.02951 49.8067 2.64458 48.6685 2.59301L48.6682 1.38633ZM23.5548 0.205272H25.361L27.3401 4.56888L28.7752 1.41195H27.3651L27.9093 0.205272H30.8784L28.0081 6.51946H26.4248L23.5548 0.205272ZM21.9959 15.4772H27.6868L29.5985 9.42288L31.4967 15.4772H37.2367L32.6843 19.2244L34.8032 26L29.468 21.8939L24.3938 26L26.4989 19.3272L21.9959 15.4772Z" fill="white"/>
</svg>
