<svg width="65" height="32" viewBox="0 0 65 32" fill="none" xmlns="http://www.w3.org/2000/svg">
<g clip-path="url(#clip0_1610_4915)">
<path d="M32.9232 0.00390625C32.5196 0.00644235 32.1187 0.0292672 31.7178 0.074917V10.3309H34.1259V9.34436H41.1734C41.213 9.65123 41.2367 9.9581 41.2393 10.2675C41.2367 13.9144 38.6704 17.0972 34.9963 18.0077V20.3358C39.9944 19.3822 43.5947 15.1672 43.5973 10.2675C43.5999 4.59932 38.8207 0.00390625 32.9232 0.00390625ZM30.8079 0.206794C25.8282 1.17558 22.249 5.38297 22.249 10.27C22.249 15.9408 27.0283 20.5362 32.9258 20.5362C33.3293 20.5336 33.7303 20.5108 34.1312 20.4652V11.1932H29.2464V13.5847H31.7204V18.1725C27.6402 17.5968 24.6123 14.234 24.607 10.2675C24.6096 6.63581 27.1575 3.46061 30.8105 2.53747V0.206794H30.8079ZM34.1285 2.36502C36.919 2.76065 39.3113 4.48773 40.4824 6.95536H34.1285V2.36502Z" fill="white"/>
<path d="M11.4961 25.2119C8.57104 25.2119 8.60797 28.7193 8.60797 28.7193C8.60797 28.7193 8.64753 31.9909 11.3985 31.9909C14.3209 31.9909 14.3024 28.5317 14.3024 28.5317C14.3024 28.5317 14.2391 25.2119 11.4961 25.2119ZM29.4683 25.2119C26.5433 25.2119 26.5802 28.7193 26.5802 28.7193C26.5802 28.7193 26.6198 31.9909 29.3707 31.9909C32.2931 31.9909 32.2746 28.5317 32.2746 28.5317C32.2746 28.5317 32.2113 25.2119 29.4683 25.2119ZM37.8425 25.2677L35.4476 31.7221H34.8832V31.9453H36.2204V31.7221H35.714L36.3998 29.8783H38.5098L39.2694 31.7221H38.4386V31.9453H42.9145V31.7043H42.2604V28.5799H43.1572C43.6477 28.5799 43.864 29.1226 43.9511 29.2621C44.0407 29.399 44.0223 30.629 44.0935 30.9384C44.1647 31.2478 44.3309 31.5725 44.708 31.7906C45.1089 32.0239 45.7551 31.8616 45.8685 31.8286V31.9427H47.1187V31.7195H46.6414V26.3937L48.7039 31.996H48.8569L50.8667 26.3785V31.7221H50.2653V31.9427H53.3671L53.3644 31.7246H52.8686L53.5728 29.8961H55.7066L56.4266 31.7221H55.6723V31.963H58.6817V31.7195H58.0988V26.0032H58.1885L62.187 31.9985H62.2925V25.5239H63.49V31.7246H63.0495V31.9529H64.9248V31.7221H64.4896V25.5239H64.8879V25.2956L61.6226 25.288V25.5289H62.1185V30.1522L58.8268 25.288H57.4711V25.5289H57.9485L57.9459 31.7246H57.4869L55.0789 25.3058H54.9549L52.6497 31.7246H51.8241V25.5289H52.3305V25.3058H50.9959L49.1259 30.3577L47.2796 25.288H45.8343L45.8501 25.5289H46.3618V31.7246H45.8685L45.8474 31.5877C45.8474 31.5877 45.5098 31.7753 45.1274 31.6891C44.7423 31.6029 44.7212 30.5783 44.7212 29.5892C44.7212 28.6001 43.806 28.4099 43.806 28.4099C43.806 28.4099 44.8425 28.377 44.8425 26.8883C44.8425 25.4021 43.0437 25.2855 43.0437 25.2855H40.7385V25.5264H41.3583V31.7221H40.3192L37.9058 25.2677H37.8425ZM14.4818 25.2905V25.5239H15.062V31.7221H14.4501V31.9402H16.5312V31.7221H15.9008V28.5443H16.692C16.692 28.5443 17.5967 28.5748 17.6284 29.5005C17.66 30.4236 17.5281 31.9579 18.8548 31.9579C19.4193 31.9579 19.5327 31.7246 19.5327 31.7246L19.3401 31.646C19.3401 31.646 19.0817 31.9123 18.8232 31.7703C18.5647 31.6282 18.3062 31.2377 18.3247 30.5022C18.3431 29.7667 18.3405 29.1556 18.0662 28.7954C17.7919 28.4353 17.5492 28.4987 17.5492 28.4987V28.3744C17.5492 28.3744 18.533 28.0295 18.533 26.8249C18.533 25.3996 16.758 25.2905 16.758 25.2905H14.4818ZM3.51224 25.2981C2.69987 25.2981 0.924805 26.3024 0.924805 28.6813C0.924805 31.0602 3.01901 31.9554 3.45948 31.9554C3.89995 31.9554 4.69913 31.6967 4.9497 31.5293C5.60644 31.0931 5.85965 31.8692 5.85965 31.8692L6.01263 31.8666L6.02054 29.3813H6.51376V29.1682H4.65693V29.3458H5.11586V30.5605C5.11586 30.5605 4.90486 31.7753 3.47795 31.7753C2.05104 31.7753 1.88751 29.0516 1.88751 28.6965C1.88751 28.3415 1.93235 25.4579 3.57026 25.4579C5.20818 25.4579 5.68557 27.2332 5.68557 27.2332V25.4047C5.68557 25.4047 5.37434 25.8383 5.1185 25.7496C4.85738 25.6633 4.32724 25.2981 3.51224 25.2981ZM11.4803 25.4326C13.2395 25.4326 13.287 27.7176 13.287 27.7176V29.503C13.287 29.503 13.1419 31.7424 11.4486 31.7424C9.7553 31.7424 9.65771 29.645 9.65771 29.645L9.64189 27.7658C9.64189 27.7632 9.72365 25.4326 11.4803 25.4326ZM29.4525 25.4326C31.2117 25.4326 31.2592 27.7176 31.2592 27.7176V29.503C31.2592 29.503 31.1141 31.7424 29.4208 31.7424C27.7249 31.7424 27.6299 29.645 27.6299 29.645L27.6141 27.7658C27.6141 27.7632 27.6932 25.4326 29.4525 25.4326ZM42.4556 25.5213C42.8828 25.5239 44.0223 25.6456 44.0223 26.8553C44.0223 28.3415 42.2947 28.377 42.2947 28.377V25.5264C42.2947 25.5239 42.3553 25.5188 42.4556 25.5213ZM15.9799 25.5239C16.3254 25.5188 17.7101 25.5847 17.7101 26.8731C17.7101 28.344 15.9034 28.3288 15.9034 28.3288V25.5264C15.9034 25.5264 15.9298 25.5239 15.9799 25.5239ZM37.3308 27.0075H37.4706L38.4201 29.6729H36.4499L37.3308 27.0075ZM54.5619 27.0075H54.7043L55.6538 29.6729H53.6836L54.5619 27.0075Z" fill="white"/>
<path d="M24.4255 25.2939H26.2586V25.5222H25.8603V31.7052H26.2955V31.9512H24.3174V31.723H24.8607V25.5222H24.4255V25.2939Z" fill="white"/>
<path d="M23.5758 27.1909V25.3624C23.5758 25.3624 23.2646 25.796 23.0087 25.7073C22.7529 25.6185 22.2227 25.2559 21.4077 25.2559C20.5927 25.2559 18.8203 26.2576 18.8203 28.6365C18.8203 31.0153 20.9145 31.9106 21.355 31.9106C21.7955 31.9106 22.5946 31.6519 22.8452 31.4845C23.502 31.0483 23.7552 31.8244 23.7552 31.8244L23.9081 31.8218L23.916 29.3364H24.4093V29.1234H22.5524V29.3009H23.0114V30.5157C23.0114 30.5157 22.8004 31.7305 21.3735 31.7305C19.9465 31.7305 19.783 29.0067 19.783 28.6517C19.783 28.2966 19.8279 25.4131 21.4658 25.4131C23.0984 25.4156 23.5758 27.1909 23.5758 27.1909Z" fill="white"/>
<path d="M6.53197 25.2939H8.36506V25.5222H7.96679V31.7052H8.40199V31.9512H6.42383V31.723H6.96716V25.5222H6.53197V25.2939Z" fill="white"/>
</g>
<defs>
<clipPath id="clip0_1610_4915">
<rect width="64" height="32" fill="white" transform="translate(0.924805)"/>
</clipPath>
</defs>
</svg>
