<svg width="163" height="25" viewBox="0 0 163 25" fill="none" xmlns="http://www.w3.org/2000/svg">
<path fill-rule="evenodd" clip-rule="evenodd" d="M157.26 0.859107H163C162.364 1.3436 161.983 1.93698 161.983 2.74914V22.16C161.983 22.9711 162.381 23.5495 163 24.033H157.26C157.879 23.5495 158.261 22.9561 158.261 22.16V2.74814C158.262 1.93599 157.896 1.3426 157.26 0.859107ZM24.2179 9.19743C23.28 7.2145 22.2466 5.26253 20.5132 3.842C18.669 2.3116 16.3304 1.39056 13.9135 1.39056C7.48977 1.39056 4.61105 7.08963 4.61105 12.6958C4.61105 18.1152 7.36262 23.5955 13.5636 23.5955C16.0914 23.5955 18.5571 22.5186 20.1145 20.5656V16.1932C20.1145 15.0064 19.7167 14.2422 18.7789 13.5399H25.346C24.6462 14.3201 24.2179 15.1163 24.2179 16.1932V20.5656C21.212 23.3148 17.4758 25 13.3256 25C5.99548 25 0 19.7065 0 12.3362C0 5.01279 5.91512 0 13.1506 0C17.6508 0 21.2914 1.62432 24.2179 4.88792V9.19743ZM40.3093 0.859107H46.495C45.6517 1.46747 45.3659 2.15476 45.3659 3.16971V17.334C45.3659 21.2209 50.0085 23.1269 53.4121 23.1269C56.7516 23.1269 61.1083 21.2069 61.1083 17.4119V3.16971C61.1083 2.2167 60.8693 1.56138 60.2183 0.859107H63.5893C62.9058 1.54639 62.6515 2.23268 62.6515 3.16971V17.4119C62.6515 22.5336 56.4983 24.5005 52.2362 24.5005C47.8479 24.5005 41.4394 22.5965 41.4394 17.334V3.16971C41.4384 2.20171 41.0407 1.48346 40.3093 0.859107ZM102.259 9.27536C101.433 7.22948 100.462 5.43435 98.7607 3.95089C96.9327 2.35755 94.706 1.35859 92.2423 1.35859C85.8827 1.35859 82.6225 6.82391 82.6225 12.493C82.6225 18.1921 86.0098 23.5795 92.2901 23.5795C96.9653 23.5795 100.305 20.3468 102.26 16.4579V20.6745C99.3517 23.5016 95.5981 24.9381 91.4957 24.9381C83.894 24.9381 78.2017 20.1131 78.2017 12.4151C78.2017 4.93587 83.6713 0.0169883 91.1295 0.0169883C95.2635 0.0169883 99.2693 1.42252 102.259 4.21761V9.27536ZM142.139 9.27536C141.313 7.22948 140.34 5.43435 138.641 3.95089C136.813 2.35755 134.586 1.35859 132.122 1.35859C125.761 1.35859 122.517 6.82391 122.517 12.493C122.517 18.1921 125.888 23.5795 132.17 23.5795C136.845 23.5795 140.199 20.3468 142.14 16.4579V20.6745C139.23 23.5016 135.492 24.9381 131.376 24.9381C123.774 24.9381 118.083 20.1131 118.083 12.4151C118.083 4.93587 123.552 0.0169883 131.009 0.0169883C135.142 0.0169883 139.15 1.42252 142.14 4.21761L142.139 9.27536Z" fill="white"/>
</svg>
