<svg width="44" height="29" viewBox="0 0 44 29" fill="none" xmlns="http://www.w3.org/2000/svg">
<path fill-rule="evenodd" clip-rule="evenodd" d="M31.0269 0.872771C32.5888 0.0917015 33.3903 0.211727 33.4104 0.992797C33.43 2.01418 33.2697 3.37601 33.1693 4.35738C32.569 9.68497 31.6075 14.0309 31.5274 19.5185C34.1112 12.8291 36.2541 8.22272 39.0382 2.51493C39.9194 0.692345 40.5002 1.03281 41.2211 0.692346C44.0452 -0.5696 44.1451 0.211469 43.7646 1.77361C42.403 7.44165 38.9179 25.3665 38.3774 28.1108C38.2171 28.912 37.3359 28.5915 37.1356 28.2711C36.0941 26.8892 34.9723 26.8688 35.0923 25.9277C35.7335 21.3615 38.0168 9.80525 38.5976 7.08132C35.5732 13.2496 32.4487 21.0007 30.847 25.3665C30.5063 26.288 29.8855 26.2281 29.5051 25.5469C28.9439 24.5653 27.9024 24.0849 27.7426 22.9634C27.1815 19.3781 28.3632 12.5287 28.5234 8.18272C26.9012 12.9091 24.1375 22.1222 22.9357 26.2676C22.4352 27.9903 20.7729 27.6898 21.2135 26.0474C23.0557 19.0575 27.0016 6.74034 28.7036 2.31411C29.1042 1.25324 30.1653 1.31338 31.0269 0.872771ZM21.0529 0.0116848C20.5119 -0.108341 18.9498 0.732612 17.9886 0.873029C17.6884 0.953304 17.4078 1.2535 17.3079 1.49355C15.7852 4.9983 14.4237 8.32339 13.2621 11.3271C11.508 11.6488 9.7586 11.996 8.01456 12.3686C9.43654 8.76374 10.8588 5.17898 12.2405 1.75373C12.9214 0.0315602 11.1192 -0.128733 10.4177 1.5937C9.51656 3.81688 7.814 8.00229 5.93154 12.8696C4.54956 13.2101 3.04731 13.5906 1.52544 14.0513C0.403906 14.3515 0.36364 14.6517 0.844258 15.3331C1.12458 15.6935 1.64546 15.6535 1.9059 15.934C2.56695 16.6147 2.96755 17.436 4.1487 17.5561C3.06744 20.36 2.02567 23.2241 1.1047 25.9679C0.503798 27.7102 2.2061 28.0708 2.84701 26.2284C3.88852 23.2843 4.98992 20.3001 6.13184 17.2755C7.0732 17.0754 9.33639 16.5948 11.4393 16.114C9.777 20.7204 8.69548 24.1853 8.25461 25.8876C8.17485 26.208 8.33489 26.3683 8.39477 26.5283C8.93579 27.3295 9.49642 27.3695 10.2174 28.3911C10.3978 28.6717 11.0586 28.8116 11.2991 28.1307C12.7348 23.7724 14.2639 19.4454 15.8854 15.1527C16.5064 14.9924 17.6282 14.732 18.3089 13.7307C19.5107 11.928 19.8514 12.2889 20.1717 11.7479C20.5321 11.0471 20.2716 10.426 18.9901 10.5662C18.9901 10.5662 18.5092 10.6065 17.588 10.7066C19.0298 7.04131 20.3121 3.93717 21.1931 1.55369C21.4933 0.732612 21.5338 0.13171 21.0529 0.0116848Z" fill="white"/>
<path fill-rule="evenodd" clip-rule="evenodd" d="M19.6443 22.7715C19.8526 22.5072 20.0415 22.2343 20.2119 21.9824C20.9708 20.8596 20.232 20.1996 19.451 20.8606C19.3395 20.9631 19.2236 21.0749 19.1084 21.191C18.9804 20.7904 18.8533 20.3894 18.7272 19.9882C19.0852 19.5494 19.4337 19.099 19.731 18.6374C20.9863 16.6907 18.5297 15.5733 17.4678 16.8353C16.9075 17.4963 17.0476 18.1571 17.2076 18.7379C17.2541 18.9123 17.3264 19.1617 17.416 19.4642C17.0265 19.871 16.6498 20.2899 16.2864 20.7202C15.0647 22.1226 15.4044 23.9281 16.687 24.3254C17.4603 24.5652 18.19 24.2157 18.8222 23.6581C18.8526 23.7376 18.8818 23.8133 18.9102 23.885C19.2507 24.7262 20.3123 24.4658 19.8916 23.4444C19.8239 23.2727 19.7393 23.0417 19.6443 22.7715ZM17.9056 21.0067C18.0094 21.3338 18.1211 21.6773 18.2326 22.0062C18.093 22.1226 17.9513 22.2403 17.8085 22.3229C17.3119 22.6102 16.9472 22.3027 17.5881 21.4417C17.6929 21.293 17.8003 21.1489 17.9056 21.0067ZM18.3065 18.5543C18.2696 18.4611 18.2484 18.3698 18.229 18.2972C17.8697 16.955 19.4081 17.3135 18.6299 18.1971C18.5194 18.3223 18.419 18.4462 18.3065 18.5543Z" fill="white"/>
</svg>
