<svg width="60" height="25" viewBox="0 0 60 25" fill="none" xmlns="http://www.w3.org/2000/svg">
<g clip-path="url(#clip0_1610_4731)">
<path d="M9.06661 0.0812361C9.06661 0.121853 7.24917 5.1178 5.01865 11.1901C2.78814 17.2624 0.743507 22.8676 0.475017 23.619L0 25L2.70553 24.939L5.39039 24.8781L5.76214 23.9642C5.94803 23.4565 7.02198 20.5524 8.13722 17.5061C9.25251 14.4598 10.1819 12.0024 10.2025 12.0227C10.2438 12.0633 10.0993 14.6425 9.87209 17.7701C9.66554 20.8976 9.4797 23.8018 9.4797 24.2079V24.9797H12.1439C14.4777 24.9797 14.8288 24.939 14.9527 24.6141C15.0146 24.4313 17.0386 18.9277 19.4137 12.4289C21.8095 5.90985 23.8128 0.446793 23.8748 0.284323C23.978 0.040617 23.5649 0 21.2518 0.040617L18.5257 0.101544L17.5136 2.84322C16.9561 4.34606 15.9234 7.16895 15.2212 9.0983C14.5396 11.0276 13.9201 12.5711 13.8788 12.5101C13.7961 12.4289 14.2712 4.4273 14.5603 1.36068L14.6842 0H11.8754C10.3265 0 9.06661 0.040617 9.06661 0.0812361Z" fill="white"/>
<path d="M24.8661 0.345247C24.8041 0.548333 22.8008 6.01136 20.4257 12.4899C18.0506 18.9683 16.0473 24.4314 15.9854 24.6141C15.8408 24.9594 16.0679 24.9797 19.1039 24.9797H22.3878L26.7868 12.9366C29.2032 6.33631 31.2272 0.710803 31.3098 0.446791L31.413 0H28.2119C25.3618 0 24.99 0.040617 24.8661 0.345247Z" fill="white"/>
<path d="M32.3835 0.548333C31.5574 2.66044 23.5234 24.6954 23.5234 24.8578C23.5234 24.9188 24.9691 24.9594 26.7659 24.9391L29.9878 24.8782L31.7639 20.0041C32.7346 17.3233 33.5607 15.3128 33.6021 15.5362C33.6227 15.7596 33.4781 17.9732 33.2716 20.4509L32.8999 24.9797H36.1424H39.3642L39.5088 23.8018C39.5707 23.1722 39.8186 20.0853 40.0664 16.9578L40.5001 11.2713L43.9285 6.19416C45.8079 3.39155 47.5221 0.873273 47.7493 0.548333L48.121 0H45.1677H42.2143L39.0337 4.671C37.2783 7.25021 35.8119 9.30136 35.7706 9.28106C35.7293 9.24046 36.4522 7.16896 37.3609 4.69131C38.2696 2.21365 39.0131 0.14216 39.0131 0.101543C39.0131 0.040617 37.5674 0 35.8119 0H32.6107L32.3835 0.548333Z" fill="white"/>
<path d="M48.0386 1.96994C47.6256 3.06661 45.6222 8.52965 43.5776 14.1145C41.533 19.6994 39.7981 24.4313 39.7362 24.6344C39.5916 24.9594 39.9014 24.9797 45.2298 24.9391L50.8683 24.8781L51.6528 22.7457C52.0866 21.5678 52.4994 20.4711 52.5615 20.2681C52.6444 19.9837 52.4171 19.9431 50.4344 19.9634C49.2158 19.9634 48.2039 19.8822 48.1625 19.7806C48.1212 19.6791 48.493 18.5012 48.9886 17.1608L49.8974 14.7238L52.0657 14.6629L54.2552 14.6019L55.1018 12.2664C55.5767 10.987 55.9484 9.8294 55.9484 9.72785C55.9484 9.6263 55.0194 9.5451 53.8835 9.5451C52.7476 9.5451 51.8181 9.50445 51.8181 9.46385C51.8181 9.42325 52.0454 8.75305 52.3342 8.00165C52.6235 7.2299 52.9952 6.21445 53.1813 5.72705L53.5118 4.87409H55.8661C57.1672 4.87409 58.2203 4.85378 58.2203 4.81316C58.2203 4.77254 58.5925 3.75711 59.0466 2.51828C59.5011 1.29975 59.8728 0.243704 59.8728 0.142161C59.8728 0.0609266 57.3737 0 54.3172 0H48.7614L48.0386 1.96994Z" fill="white"/>
</g>
<defs>
<clipPath id="clip0_1610_4731">
<rect width="60" height="25" fill="white"/>
</clipPath>
</defs>
</svg>
