<svg width="103" height="28" viewBox="0 0 103 28" fill="none" xmlns="http://www.w3.org/2000/svg">
<path d="M70.2712 7.41373H74.3015V8.199C76.7268 7.20259 79.0832 6.72535 80.9927 8.88738C82.0804 8.4246 83.0704 7.8201 84.1437 7.56847C87.2673 6.82369 89.4412 8.72541 89.0518 11.9316C88.6625 15.1377 88.0461 18.3309 87.5317 21.5443H83.4468C83.6695 20.1126 83.8779 18.7242 84.1164 17.3345C84.3664 15.7914 84.6322 14.2469 84.8836 12.7067C84.8816 12.6828 84.886 12.6588 84.8966 12.6373C85.0503 11.4717 84.6595 10.5881 83.8793 10.3639C83.0287 10.1253 81.9698 10.6025 81.5933 11.6539C81.2169 12.7053 81.0761 13.8232 80.8749 14.9237C80.5258 16.9874 80.2197 19.0771 79.8562 21.1422C79.8209 21.2446 79.7621 21.3371 79.6848 21.4125C79.6074 21.4878 79.5136 21.5439 79.4108 21.5761C78.2111 21.618 76.9984 21.5891 75.7153 21.5891C75.9668 19.9896 76.2182 18.4321 76.4682 16.8746C76.7053 15.3735 76.9711 13.8854 77.1866 12.3915C77.3116 11.5773 76.9495 10.7775 76.336 10.4695C75.7225 10.1615 74.9279 10.3567 74.3144 10.9597C73.5342 11.732 73.4926 12.7559 73.3245 13.7378C72.8934 16.341 72.4882 18.9441 72.0558 21.5689H67.9853C68.7525 16.8298 69.5054 12.1572 70.2712 7.41373ZM33.5218 20.127C33.0908 22.8213 32.6712 25.3897 32.2387 28H28.1539C29.2688 21.1234 30.3709 14.2903 31.4859 7.42819H35.5707C35.529 7.77817 35.473 8.10066 35.4457 8.38122C36.2819 8.05872 37.0909 7.61041 37.9544 7.42819C40.8826 6.79621 43.308 8.33928 44.1327 11.2446C45.3166 15.4111 42.387 20.3931 38.1642 21.3404C36.463 21.699 34.9299 21.3476 33.5218 20.127ZM40.0177 14.0647C40.032 12.4739 39.4329 11.4269 38.4372 11.048C37.4415 10.6691 36.2906 11.0899 35.44 12.1283C35.0437 12.6006 34.7467 13.1488 34.567 13.7399C34.3872 14.331 34.3283 14.9526 34.394 15.5673C34.4917 16.6056 34.9242 17.4748 35.9745 17.8392C36.9802 18.1906 37.8423 17.8117 38.5823 17.1248C39.4408 16.3336 39.9563 15.2347 40.0177 14.0647ZM0.924805 18.0778C1.85873 17.2925 2.76536 16.5347 3.67199 15.7639C4.07574 16.2282 4.42489 16.7039 4.843 17.0973C5.84877 18.0662 7.03127 18.0793 8.29135 17.6454C9.50402 17.2246 10.2842 16.4104 10.5069 15.1045C10.6506 14.2209 10.3963 13.4775 9.62903 12.9858C9.08591 12.6359 8.49969 12.3539 7.92784 12.0458C7.58013 11.8636 7.21805 11.6944 6.86891 11.5266C1.95644 9.11154 2.76536 3.69707 6.30711 1.19663C8.66349 -0.459235 11.1032 -0.24954 13.5573 0.930537C14.086 1.18362 14.5745 1.53359 15.1378 1.87055C14.3432 2.86696 13.6047 3.79251 12.8791 4.69059C12.2239 4.40135 11.6104 4.06005 10.9552 3.86338C9.40776 3.38614 8.01405 4.03113 7.30282 5.49177C6.82868 6.47372 7.03701 7.35733 7.97094 7.90543C8.90487 8.45353 9.86754 8.87292 10.8015 9.37763C12.5443 10.3191 13.8188 11.651 14.0918 13.7161C14.5228 16.8876 12.9423 19.6368 10.0213 20.947C6.55712 22.4713 3.01824 21.3895 0.924805 18.0778ZM17.2097 7.41373H21.3089C20.8204 10.416 20.3606 13.3922 19.8721 16.3525C19.6767 17.5456 20.0158 18.0084 21.1968 18.1067C22.6739 18.2325 23.352 17.6729 23.5805 16.2267C24.0403 13.3069 24.5288 10.3885 25.0173 7.41373H29.1022C28.8234 9.19541 28.5447 10.9496 28.2516 12.7183C28.0562 13.9389 27.8464 15.1594 27.6381 16.38C27.1783 19.1162 25.365 20.9557 22.6609 21.404C21.1264 21.6571 19.6077 21.6701 18.1292 21.1148C16.3303 20.4278 15.3835 18.73 15.7039 16.8066C16.2053 13.7147 16.6938 10.5996 17.2097 7.41373ZM67.6232 15.09H58.8586C58.748 16.5492 59.4448 18.0084 60.4908 18.3453C62.2337 18.9238 63.1389 17.7423 63.9895 16.4783C64.9521 16.8442 65.9004 17.2014 66.8473 17.5586C65.6763 20.0576 62.1777 22.5407 58.6919 21.3765C56.2379 20.5623 55.0669 18.6404 54.8298 16.1414C54.4562 12.283 57.3054 8.3682 61.0282 7.52653C64.2625 6.80344 67.1074 8.68347 67.5944 12.0097C67.7338 12.9844 67.6232 14.0227 67.6232 15.09ZM59.2293 12.5635H64.2768C63.8587 10.9728 63.0354 10.1354 61.9779 10.1224C60.8199 10.1079 59.6905 11.1044 59.2293 12.5635ZM99.2015 16.4783C100.163 16.8442 101.097 17.2014 102.032 17.5456C100.372 20.9687 95.4931 23.1307 92.1884 20.4495C90.2918 18.9065 89.7214 16.8008 90.0978 14.4725C90.6137 11.1738 92.4255 8.78904 95.6181 7.69429C99.2848 6.43178 102.658 8.77458 102.896 12.6764C102.952 13.4616 102.91 14.2469 102.91 15.09H94.0563C93.904 16.4653 94.6425 17.91 95.6741 18.3453C96.7891 18.8356 97.7517 18.3453 99.2015 16.4783ZM99.3969 12.6055C99.3265 11.3039 98.3092 10.147 97.2072 10.1079C96.0089 10.066 94.6008 11.343 94.4772 12.6055H99.3969ZM55.3542 7.39927C54.9921 8.6343 54.6574 9.77099 54.3082 10.9641C54.1584 10.9437 54.0098 10.9158 53.8628 10.8802C51.9245 10.2757 50.2521 11.2721 49.8886 13.3069C49.4432 15.7914 49.0667 18.2745 48.6615 20.759C48.6199 21.0106 48.5638 21.2637 48.5179 21.5443H44.4517C45.2189 16.8153 45.9718 12.1283 46.7376 7.41373H50.7808C50.7679 7.73623 50.7392 8.04571 50.7119 8.41014C52.1199 7.34287 53.6674 7.20259 55.3542 7.39927Z" fill="white"/>
</svg>
