<svg width="42" height="29" viewBox="0 0 42 29" fill="none" xmlns="http://www.w3.org/2000/svg">
<path fill-rule="evenodd" clip-rule="evenodd" d="M0 0H4.55457L7.07829 17.3569L9.54019 0H40.7461L39.7 4.98562H13.3566L9.3557 27.8205H4.80089L0 0Z" fill="white"/>
<path fill-rule="evenodd" clip-rule="evenodd" d="M41.5461 21.3585C41.6693 24.0664 40.1305 28.1904 36.745 28.1904C32.8062 28.1904 31.9443 23.3282 31.9443 21.2969H35.1449C35.1449 22.4661 36.1299 23.6359 36.8684 23.6359C37.6071 23.6359 38.346 22.7124 38.346 22.0972C38.346 21.4814 38.0997 20.5584 36.9304 19.7582C33.1138 17.4808 32.2522 14.8339 32.2522 12.5567C32.1291 9.84852 33.4215 5.84766 36.8068 5.84766C40.1924 5.84766 41.1155 10.5872 41.1155 12.5567H38.0997C38.0997 11.4488 37.361 10.6488 36.6226 10.6488C35.8839 10.6488 35.3912 11.3872 35.3912 12.003C35.3912 12.6185 35.5144 13.1725 36.6841 13.9725C38.2842 14.7112 41.5461 17.1115 41.5461 21.3585Z" fill="white"/>
<path fill-rule="evenodd" clip-rule="evenodd" d="M14.9569 20.4349L16.188 12.4332L17.419 20.4349H14.9569ZM14.2184 24.9279H18.0346L18.5269 27.8206H24.6202V16.3725L28.3748 27.8206H31.5138V6.52441H28.3132V17.3573L24.7434 6.52441H21.4199V26.5282L17.973 6.52441H14.4029L10.71 27.8206H13.849L14.2184 24.9279Z" fill="white"/>
</svg>
