<svg width="30" height="30" viewBox="0 0 30 30" fill="none" xmlns="http://www.w3.org/2000/svg">
<path d="M26.2875 13.3875C26.7256 12.3151 26.8721 11.1458 26.7119 9.99841C26.5517 8.85106 26.0907 7.76656 25.3756 6.85509C24.6606 5.94363 23.717 5.2377 22.6408 4.80903C21.5645 4.38035 20.394 4.24421 19.2481 4.41444C18.5379 3.4997 17.5984 2.78916 16.5248 2.35496C15.4513 1.92077 14.2819 1.77839 13.1356 1.94227C11.9892 2.10616 10.9066 2.57048 9.99769 3.28809C9.08879 4.0057 8.38597 4.95104 7.96059 6.02812C6.81278 6.18523 5.72701 6.6434 4.81363 7.35607C3.90025 8.06873 3.19181 9.01049 2.7603 10.0856C2.32879 11.1608 2.18958 12.331 2.35684 13.4774C2.52409 14.6238 2.99183 15.7054 3.71254 16.6125C3.36084 17.4744 3.19653 18.4012 3.23051 19.3314C3.26448 20.2617 3.49597 21.1741 3.90961 22.008C4.32324 22.8419 4.90955 23.5783 5.62961 24.1682C6.34966 24.7582 7.18699 25.1882 8.08598 25.4297C8.6432 25.5822 9.21803 25.661 9.79574 25.6641C10.1162 25.6637 10.4362 25.6398 10.7532 25.5926C11.4634 26.507 12.403 27.2172 13.4765 27.6511C14.55 28.0851 15.7192 28.2272 16.8654 28.0632C18.0116 27.8992 19.094 27.4349 20.0027 26.7174C20.9114 25.9998 21.6141 25.0546 22.0395 23.9777C23.1873 23.8206 24.2731 23.3624 25.1864 22.6498C26.0998 21.9371 26.8083 20.9953 27.2398 19.9202C27.6713 18.845 27.8105 17.6748 27.6432 16.5284C27.476 15.3821 27.0082 14.3004 26.2875 13.3934V13.3875ZM21.4278 6.37851C22.6091 6.69431 23.6203 7.45924 24.2456 8.51012C24.8708 9.561 25.0607 10.8146 24.7746 12.0035C24.6633 11.9297 24.5508 11.8582 24.4336 11.7914L19.2188 8.77499C19.0763 8.69271 18.9146 8.64939 18.75 8.64939C18.5855 8.64939 18.4238 8.69271 18.2813 8.77499L13.125 11.7527V9.5871L17.8711 6.84726C18.4036 6.53799 18.9921 6.33733 19.6025 6.25687C20.213 6.17641 20.8334 6.21775 21.4278 6.37851ZM16.875 16.0828L15 17.1656L13.125 16.0828V13.9172L15 12.8344L16.875 13.9172V16.0828ZM9.37504 8.43749C9.37547 7.52109 9.64451 6.62491 10.1489 5.85979C10.6533 5.09467 11.3708 4.49418 12.2129 4.13257C13.0549 3.77097 13.9845 3.66411 14.8866 3.82522C15.7888 3.98633 16.6239 4.40834 17.2887 5.03905C17.1715 5.09882 17.0543 5.15624 16.9371 5.2289L11.7188 8.23476C11.5764 8.31696 11.4582 8.43515 11.3759 8.57749C11.2936 8.71982 11.2502 8.88129 11.25 9.04569V15L9.37504 13.9172V8.43749ZM4.78832 10.1871C5.38563 9.14539 6.36215 8.37459 7.5141 8.03554C7.5059 8.16913 7.50004 8.30273 7.50004 8.43749V14.4586C7.5 14.6232 7.5433 14.7849 7.62559 14.9275C7.70787 15.07 7.82624 15.1884 7.96879 15.2707L13.125 18.2473L11.25 19.3359L6.50394 16.5902C5.42735 15.9686 4.64178 14.9448 4.32004 13.744C3.9983 12.5432 4.16675 11.2637 4.78832 10.1871ZM8.5723 23.6215C7.39096 23.3057 6.37979 22.5407 5.75452 21.4899C5.12925 20.439 4.93938 19.1854 5.22543 17.9965C5.33676 18.0703 5.44926 18.1418 5.56644 18.2086L10.7813 21.225C10.9238 21.3073 11.0855 21.3506 11.25 21.3506C11.4146 21.3506 11.5763 21.3073 11.7188 21.225L16.875 18.2473V20.4129L12.1289 23.1527C11.5965 23.462 11.008 23.6627 10.3975 23.7431C9.78707 23.8236 9.1667 23.7822 8.5723 23.6215ZM20.625 21.5625C20.6255 22.4792 20.3572 23.3759 19.8534 24.1416C19.3495 24.9074 18.6322 25.5086 17.7901 25.8709C16.9481 26.2332 16.0183 26.3406 15.1158 26.1799C14.2133 26.0192 13.3778 25.5975 12.7125 24.9668C12.8297 24.907 12.9469 24.8437 13.0641 24.7758L18.2813 21.7652C18.4237 21.683 18.5419 21.5648 18.6242 21.4225C18.7065 21.2802 18.7499 21.1187 18.75 20.9543V15L20.625 16.0828V21.5625ZM25.2118 19.8129C24.6144 20.8546 23.6379 21.6254 22.486 21.9644C22.4942 21.8308 22.5 21.6973 22.5 21.5625V15.5414C22.5001 15.3768 22.4568 15.2151 22.3745 15.0725C22.2922 14.93 22.1738 14.8116 22.0313 14.7293L16.875 11.7527L18.75 10.6699L23.4961 13.4098C24.5727 14.0314 25.3583 15.0552 25.68 16.256C26.0018 17.4568 25.8333 18.7363 25.2118 19.8129Z" fill="black"/>
</svg>
