<svg width="21" height="21" viewBox="0 0 21 21" fill="none" xmlns="http://www.w3.org/2000/svg">
<path d="M4.6752 4.19922L4.72833 3.76953C4.76639 3.46739 4.91345 3.18953 5.14189 2.98814C5.37032 2.78675 5.66442 2.67568 5.96895 2.67578H15.0315C15.336 2.67568 15.6301 2.78675 15.8585 2.98814C16.087 3.18953 16.234 3.46739 16.2721 3.76953L16.3252 4.19844C16.3308 4.24263 16.3268 4.28751 16.3136 4.33005C16.3004 4.3726 16.2783 4.41183 16.2487 4.44512C16.2191 4.47842 16.1828 4.505 16.1421 4.52308C16.1013 4.54117 16.0572 4.55035 16.0127 4.55H4.98536C4.94109 4.55 4.89732 4.5406 4.85696 4.52241C4.8166 4.50422 4.78056 4.47766 4.75124 4.4445C4.72191 4.41133 4.69997 4.37231 4.68686 4.33003C4.67375 4.28774 4.66978 4.24316 4.6752 4.19922ZM13.7033 5.80078C13.8427 6.33723 14.156 6.81231 14.5943 7.15161C15.0325 7.49091 15.571 7.67526 16.1252 7.67578H16.4057C16.4502 7.67613 16.4943 7.66695 16.535 7.64887C16.5757 7.63078 16.6121 7.6042 16.6417 7.5709C16.6713 7.53761 16.6934 7.49838 16.7066 7.45583C16.7198 7.41329 16.7237 7.36841 16.7182 7.32422L16.5619 6.07422C16.5524 5.99828 16.5153 5.92849 16.4577 5.87809C16.4001 5.82769 16.326 5.80018 16.2494 5.80078H13.7033ZM4.59473 7.67578H4.8752C5.42945 7.67526 5.96788 7.49091 6.40614 7.15161C6.8444 6.81231 7.15774 6.33723 7.29708 5.80078H4.75098C4.67445 5.80018 4.60035 5.82769 4.54275 5.87809C4.48515 5.92849 4.44805 5.99828 4.43848 6.07422L4.28223 7.32422C4.27666 7.36841 4.28061 7.41329 4.2938 7.45583C4.30699 7.49838 4.32912 7.53761 4.35872 7.5709C4.38831 7.6042 4.42468 7.63078 4.46538 7.64887C4.50609 7.66695 4.55019 7.67613 4.59473 7.67578ZM17.9908 17.5195L16.9502 9.19922C16.9406 9.12328 16.9035 9.05349 16.8459 9.00309C16.7883 8.95269 16.7142 8.92518 16.6377 8.92578H16.1252C15.2394 8.92453 14.3826 8.61022 13.7061 8.03838C13.0296 7.46655 12.577 6.674 12.4283 5.80078H11.1252V8.90469C11.1272 9.06593 11.0681 9.22196 10.9599 9.3415C10.8517 9.46104 10.7023 9.53523 10.5416 9.54922C10.4561 9.5549 10.3704 9.54293 10.2897 9.51408C10.209 9.48522 10.1351 9.44008 10.0726 9.38147C10.0102 9.32286 9.96038 9.25202 9.92641 9.17336C9.89244 9.0947 9.87501 9.0099 9.8752 8.92422V5.80078H8.57208C8.42337 6.674 7.97079 7.46655 7.29431 8.03838C6.61783 8.61022 5.76099 8.92453 4.8752 8.92578H4.36036C4.28382 8.92518 4.20973 8.95269 4.15213 9.00309C4.09452 9.05349 4.05742 9.12328 4.04786 9.19922L3.00958 17.5195C2.98149 17.7451 3.01546 17.9741 3.10783 18.1818C3.2002 18.3896 3.34747 18.5682 3.5338 18.6984C3.7534 18.8493 4.01424 18.9287 4.28067 18.9258H7.42911C7.70709 18.9258 7.97716 18.8332 8.19661 18.6626C8.41606 18.4919 8.57237 18.253 8.64083 17.9836L10.5002 10.7961L12.3588 17.9789C12.4264 18.2493 12.5824 18.4894 12.8021 18.661C13.0218 18.8325 13.2926 18.9257 13.5713 18.9258H16.7197C16.986 18.9293 17.2469 18.8504 17.4666 18.7C17.6532 18.5696 17.8006 18.3908 17.893 18.1827C17.9854 17.9747 18.0192 17.7454 17.9908 17.5195Z" fill="#C0C0C0"/>
</svg>
