<svg width="21" height="21" viewBox="0 0 21 21" fill="none" xmlns="http://www.w3.org/2000/svg">
<path d="M16.2031 3.92578H14.5117L13.4422 2.85859C13.3841 2.80057 13.3152 2.75456 13.2393 2.7232C13.1634 2.69183 13.0821 2.67572 13 2.67578H8C7.9179 2.67572 7.83659 2.69183 7.76072 2.7232C7.68485 2.75456 7.6159 2.80057 7.55781 2.85859L6.48828 3.92578H4.79688C4.48607 3.92578 4.188 4.04925 3.96823 4.26902C3.74847 4.48878 3.625 4.78686 3.625 5.09766V17.1289C3.625 17.4397 3.74847 17.7378 3.96823 17.9575C4.188 18.1773 4.48607 18.3008 4.79688 18.3008H9.5625C9.64538 18.3008 9.72487 18.2679 9.78347 18.2093C9.84208 18.1506 9.875 18.0712 9.875 17.9883V8.94687C9.87261 8.78536 9.93148 8.62894 10.0398 8.50907C10.148 8.3892 10.2977 8.31478 10.4586 8.30078C10.5441 8.2951 10.6298 8.30707 10.7105 8.33592C10.7912 8.36478 10.8651 8.40992 10.9276 8.46853C10.99 8.52714 11.0398 8.59798 11.0738 8.67664C11.1078 8.7553 11.1252 8.8401 11.125 8.92578V17.9883C11.125 18.0712 11.1579 18.1506 11.2165 18.2093C11.2751 18.2679 11.3546 18.3008 11.4375 18.3008H16.2031C16.5139 18.3008 16.812 18.1773 17.0318 17.9575C17.2515 17.7378 17.375 17.4397 17.375 17.1289V5.09766C17.375 4.78686 17.2515 4.48878 17.0318 4.26902C16.812 4.04925 16.5139 3.92578 16.2031 3.92578ZM7.26094 9.16641C7.21524 9.20397 7.15983 9.22779 7.10113 9.2351C7.04243 9.24241 6.98287 9.23292 6.92935 9.20771C6.87584 9.18251 6.83058 9.14264 6.79883 9.09273C6.76708 9.04283 6.75015 8.98493 6.75 8.92578V5.43438L7.94062 4.24375L9.77422 6.99453L7.26094 9.16641ZM14.25 8.92578C14.2501 8.98525 14.2333 9.04352 14.2015 9.09376C14.1696 9.14399 14.1241 9.1841 14.0703 9.20937C14.0174 9.23488 13.9583 9.24469 13.9 9.23762C13.8417 9.23056 13.7867 9.20693 13.7414 9.16953L11.2258 6.99609L13.0594 4.24531L14.25 5.43438V8.92578Z" fill="#C0C0C0"/>
</svg>
