<svg width="21" height="21" viewBox="0 0 21 21" fill="none" xmlns="http://www.w3.org/2000/svg">
<g clip-path="url(#clip0_176_1265)">
<path d="M18.3633 10.8873L16.1711 10.1568C16.1046 10.1337 16.0322 10.1337 15.9656 10.1568L12.5883 11.3849C12.52 11.4106 12.4479 11.4244 12.375 11.4256C12.2382 11.4255 12.1051 11.3805 11.9963 11.2975C11.8875 11.2145 11.8089 11.0981 11.7727 10.9662C11.7332 10.8114 11.7532 10.6475 11.8287 10.5068C11.9042 10.3661 12.0297 10.2588 12.1805 10.206L13.625 9.68104C13.6638 9.66705 13.6973 9.64132 13.7208 9.60741C13.7443 9.57351 13.7567 9.53312 13.7562 9.49187C13.7556 9.45062 13.7423 9.41055 13.7179 9.37724C13.6936 9.34394 13.6595 9.31905 13.6203 9.30604C13.3642 9.22056 13.1297 9.08064 12.9328 8.89588C12.8908 8.85448 12.8378 8.82583 12.7802 8.81325C12.7225 8.80067 12.6625 8.80467 12.607 8.82479L10.7148 9.51229C10.6338 9.54169 10.5476 9.55402 10.4615 9.54848C10.3755 9.54295 10.2915 9.51967 10.2149 9.48012C10.1383 9.44058 10.0707 9.38561 10.0164 9.31867C9.96207 9.25174 9.92217 9.17429 9.89922 9.09119C9.85977 8.93644 9.87977 8.77252 9.95527 8.63179C10.0308 8.49107 10.1563 8.38375 10.307 8.33104L11.9062 7.74822C11.9463 7.7337 11.9829 7.71116 12.0139 7.68199C12.0448 7.65281 12.0695 7.61761 12.0864 7.57855C12.1033 7.53948 12.1121 7.49738 12.1121 7.45482C12.1122 7.41226 12.1035 7.37014 12.0867 7.33104L11.8477 6.77166C11.8163 6.69806 11.7579 6.63929 11.6845 6.60746C11.6111 6.57563 11.5283 6.57316 11.4531 6.60057L9.46094 7.32479C9.3799 7.35419 9.29365 7.36652 9.20762 7.36098C9.12159 7.35545 9.03763 7.33217 8.96103 7.29262C8.88443 7.25308 8.81683 7.19811 8.7625 7.13117C8.70817 7.06424 8.66827 6.98679 8.64531 6.90369C8.60587 6.74894 8.62587 6.58502 8.70137 6.44429C8.77686 6.30357 8.90238 6.19625 9.05313 6.14354L10.9281 5.46151C10.968 5.44698 11.0046 5.42446 11.0355 5.39534C11.0664 5.36622 11.0911 5.3311 11.1079 5.29213C11.1248 5.25316 11.1336 5.21115 11.1337 5.16868C11.1338 5.12621 11.1253 5.08416 11.1086 5.0451L10.6867 4.05057C10.6867 4.05057 10.6867 4.0451 10.6867 4.04276C10.5576 3.75314 10.3232 3.52342 10.0311 3.40012C9.73895 3.27683 9.41086 3.26917 9.11328 3.37869L3.19766 5.52635C2.95682 5.61456 2.74883 5.7745 2.60173 5.9846C2.45463 6.19471 2.37549 6.44487 2.375 6.70135V15.8006C2.375 16.1321 2.5067 16.45 2.74112 16.6845C2.97554 16.9189 3.29348 17.0506 3.625 17.0506H19.25C19.5815 17.0506 19.8995 16.9189 20.1339 16.6845C20.3683 16.45 20.5 16.1321 20.5 15.8006V13.8521C20.5 13.1962 20.2937 12.5569 19.9102 12.0248C19.5267 11.4927 18.9855 11.0947 18.3633 10.8873ZM19.25 15.8006H3.625V14.5506H19.25V15.8006Z" fill="#C0C0C0"/>
</g>
<defs>
<clipPath id="clip0_176_1265">
<rect width="20" height="20" fill="white" transform="translate(0.5 0.800781)"/>
</clipPath>
</defs>
</svg>
